<?xml version="1.0" standalone="no"?>
<!DOCTYPE svg PUBLIC "-//W3C//DTD SVG 20010904//EN"
 "http://www.w3.org/TR/2001/REC-SVG-20010904/DTD/svg10.dtd">
<svg version="1.0" xmlns="http://www.w3.org/2000/svg"
 width="510.000000pt" height="283.000000pt" viewBox="0 0 510.000000 283.000000"
 preserveAspectRatio="xMidYMid meet">
<metadata>
Created by potrace 1.16, written by Peter Selinger 2001-2019
</metadata>
<g transform="translate(0.000000,283.000000) scale(0.100000,-0.100000)"
fill="#000000" stroke="none">
<path d="M2145 2809 c-284 -51 -507 -169 -697 -367 -177 -185 -285 -405 -323
-657 -10 -60 -18 -115 -20 -121 -2 -5 -30 -15 -63 -21 -228 -43 -462 -226
-576 -451 -21 -41 -35 -57 -64 -68 -154 -62 -245 -133 -310 -241 -138 -232
-104 -517 85 -708 78 -78 162 -127 269 -155 80 -20 84 -20 1865 -18 l1784 3
105 24 c163 36 321 109 450 207 61 47 193 180 231 234 189 271 256 594 186
898 -106 460 -461 796 -922 876 -214 37 -459 0 -658 -101 -27 -13 -50 -23 -52
-21 -1 2 -19 34 -41 73 -214 387 -628 628 -1072 624 -70 -1 -149 -5 -177 -10z
m88 -944 c120 -31 281 -135 384 -248 l42 -45 93 91 c154 152 271 206 444 207
93 0 106 -2 162 -31 146 -73 252 -249 252 -419 -1 -225 -146 -479 -433 -756
-136 -132 -307 -266 -436 -343 -83 -49 -85 -50 -119 -36 -100 43 -331 231
-481 393 -99 107 -211 242 -211 254 0 4 64 8 143 8 168 0 160 -4 222 120 32
62 39 72 46 55 4 -11 17 -126 28 -255 24 -265 30 -283 94 -288 20 -2 44 1 54
7 10 5 58 86 107 180 l88 171 275 0 c324 0 343 5 343 85 0 81 -16 85 -374 85
-216 0 -313 -4 -331 -12 -17 -8 -38 -34 -57 -72 -29 -57 -32 -59 -39 -36 -4
14 -17 126 -29 250 -27 268 -34 289 -107 290 -40 0 -66 -30 -126 -147 -25 -48
-67 -128 -94 -178 l-48 -90 -152 -3 -153 -3 -20 33 c-30 49 -60 133 -78 218
-12 60 -13 90 -5 147 24 166 148 325 288 369 55 17 159 17 228 -1z"/>
</g>
</svg>
